<svg width="100" height="100" viewBox="0 0 100 100" fill="none" xmlns="http://www.w3.org/2000/svg">
<path fill-rule="evenodd" clip-rule="evenodd" d="M20.8 10C15.1 10 10.9 15 11.1 20.4C11.3 25.6 11 32.3 9.3 37.8C7.6 43.3 4.7 46.8 0 47.3V52.4C4.7 52.8 7.6 56.3 9.3 61.9C11 67.3 11.2 74 11 79.3C10.8 84.7 15 89.7 20.7 89.7H79.2C84.9 89.7 89.1 84.7 88.9 79.3C88.8 74 89 67.3 90.7 61.8C92.4 56.3 95.3 52.8 100 52.3V47.2C95.3 46.8 92.4 43.3 90.7 37.7C89 32.4 88.8 25.6 89 20.4C89.2 15 85 10 79.3 10H20.8ZM67.8 59C67.8 66.5 62.2 71 53 71H37.3C36.9 71 36.4 70.8 36.1 70.5C35.8 70.2 35.6 69.8 35.6 69.3V30.3C35.6 29.9 35.8 29.4 36.1 29.1C36.4 28.8 36.8 28.6 37.3 28.6H52.9C60.6 28.6 65.6 32.8 65.6 39.2C65.6 43.7 62.2 47.7 57.9 48.4V48.6C63.8 49.3 67.8 53.4 67.8 59ZM51.3 34H42.3V46.7H49.8C55.6 46.7 58.9 44.4 58.9 40.2C58.9 36.2 56.2 34 51.3 34ZM42.3 51.7V65.6H51.6C57.7 65.6 60.9 63.2 60.9 58.6C60.9 54 57.6 51.7 51.2 51.7H42.3Z" fill="#686868"/>
</svg>
