<svg width="100" height="100" viewBox="0 0 100 100" fill="none" xmlns="http://www.w3.org/2000/svg">
<path d="M46.2 0H62.5V74.9C54.1 76.5 48 77.1 41.3 77.1C21.4 77.1 11 68.2 11 51C11 34.5 22 23.8 39.1 23.8C41.7 23.8 43.8 24 46.2 24.6V0ZM46.8 38.2C44.9 37.6 43.3 37.4 41.3 37.4C33 37.4 28.3 42.4 28.3 51.3C28.3 59.9 32.9 64.7 41.2 64.7C43 64.7 44.5 64.6 46.8 64.3V38.2Z" fill="#7E7E7E"/>
<path d="M89.3 25.8V63.3C89.3 76.2 88.3 82.4 85.5 87.8C82.8 92.9 79.4 96.2 72.1 99.8L56.9 92.7C64.1 89.3 67.6 86.4 69.8 81.9C72.1 77.3 72.9 71.9 72.9 57.8V25.8H89.3ZM71.3 0H87.6V16.6H71.3V0Z" fill="#7E7E7E"/>
</svg>
