<svg width="100" height="100" viewBox="0 0 100 100" fill="none" xmlns="http://www.w3.org/2000/svg">
<g clip-path="url(#clip0_790_8261)">
<path d="M5.89991 67.9998C5.99991 68.1998 6.09991 68.3998 6.19991 68.5998C6.29991 68.6998 6.29991 68.7998 6.39991 68.8998C6.49991 69.0998 6.59991 69.2998 6.69991 69.4998L7.39991 70.5998C7.49991 70.7998 7.59991 70.9998 7.79991 71.1998C7.99991 71.5998 8.29991 71.9998 8.49991 72.3998C8.59991 72.5998 8.69991 72.6998 8.79991 72.8998C9.29991 73.5998 9.69991 74.1998 10.0999 74.7998C10.3999 75.1998 10.6999 75.5998 11.0999 76.0998C11.1999 76.2998 11.2999 76.3998 11.4999 76.5998L12.3999 77.6998C12.4999 77.7998 12.5999 77.9998 12.6999 78.0998C13.0999 78.5998 13.4999 79.0998 13.9999 79.4998C14.4999 80.1998 15.0999 80.7998 15.7999 81.2998C16.0999 81.5998 16.4999 81.9998 16.7999 82.2998L17.1999 82.6998C17.6999 83.0998 18.0999 83.5998 18.5999 83.9998L18.7999 84.1998C19.1999 84.5998 19.6999 84.8998 20.0999 85.2998L20.5999 85.6998C20.9999 85.9998 21.2999 86.2998 21.6999 86.4998L22.2999 86.8998C22.6999 87.1998 23.0999 87.4998 23.4999 87.7998C23.5999 87.8998 23.7999 87.9998 23.8999 88.0998L23.9999 88.1998L25.1999 88.9998L25.6999 89.2998C26.2999 89.6998 26.8999 90.0998 27.4999 90.3998C27.6999 90.4998 27.8999 90.5998 27.9999 90.6998C28.4999 90.9998 28.8999 91.1998 29.3999 91.4998C29.5999 91.5998 29.8999 91.7998 30.1999 91.8998C30.4999 92.0998 30.7999 92.1998 31.1999 92.3998C31.2999 92.3998 31.3999 92.4998 31.3999 92.4998C31.4999 92.5998 31.6999 92.5998 31.7999 92.6998C32.2999 92.8998 32.7999 93.1998 33.3999 93.3998C33.4999 93.3998 33.5999 93.4998 33.6999 93.4998C34.2999 93.7998 34.8999 93.9998 35.4999 94.2998C35.5999 94.2998 35.7999 94.3998 35.8999 94.4998C36.4999 94.6998 36.9999 94.8998 37.5999 95.0998L37.7999 95.1998C38.3999 95.3998 39.0999 95.5998 39.6999 95.7998C39.7999 95.7998 39.9999 95.8998 40.1999 95.8998C40.8999 96.0998 41.4999 96.2998 42.1999 96.4998C84.9999 104.3 97.3999 70.8998 97.3999 70.8998C87.0999 84.5998 68.5999 88.1998 50.9999 84.1998C50.3999 83.9998 49.6999 83.7998 48.9999 83.5998C48.0999 83.2998 47.0999 82.9998 46.1999 82.6998L46.5999 82.7998L46.2999 82.6998C45.6999 82.4998 45.1999 82.2998 44.5999 82.0998C44.4999 81.9998 44.2999 81.9998 44.1999 81.8998C43.5999 81.6998 42.9999 81.3998 42.3999 81.0998C42.2999 81.0998 42.1999 80.9998 41.9999 80.8998C41.2999 80.5998 40.5999 80.2998 39.8999 79.8998L40.4999 80.1998C40.2999 80.0998 40.1999 80.0998 40.0999 79.9998C39.6999 79.7998 39.2999 79.5998 38.8999 79.3998C38.5999 79.2998 38.2999 79.0998 37.9999 78.9998H38.0999C37.5999 78.7998 37.1999 78.4998 36.6999 78.1998C36.5999 78.0998 36.3999 77.9998 36.1999 77.8998C35.4999 77.4998 34.7999 77.0998 34.0999 76.5998L34.3999 76.7998C34.1999 76.6998 34.0999 76.5998 33.8999 76.4998C33.4999 76.1998 32.9999 75.8998 32.5999 75.5998C32.4999 75.4998 32.2999 75.3998 32.1999 75.2998C31.7999 74.9998 31.2999 74.6998 30.8999 74.3998L30.9999 74.4998C30.7999 74.3998 30.5999 74.1998 30.4999 74.0998C30.0999 73.7998 29.7999 73.4998 29.3999 73.1998L28.8999 72.9998C28.3999 72.5998 27.8999 72.1998 27.3999 71.6998L25.9999 70.3998L25.4999 69.9998C25.1999 69.6998 24.7999 69.2998 24.4999 68.9998L24.0999 68.5998C23.6999 68.1998 23.1999 67.6998 22.7999 67.2998L22.6999 67.1998C22.2999 66.6998 21.7999 66.1998 21.3999 65.6998C21.2999 65.5998 21.1999 65.3998 21.0999 65.2998L20.1999 64.1998C19.7999 63.6998 19.3999 63.0998 18.9999 62.5998L18.7999 62.3998C8.99991 48.9998 5.39991 30.7998 13.1999 15.7998L6.29991 24.4998C-2.60009 37.1998 -1.50009 53.5998 5.29991 67.0998C5.49991 67.3998 5.69991 67.6998 5.89991 67.9998Z" fill="#545454"/>
<path d="M40.2999 55.3L40.6999 55.7C41.1999 56.2 41.6999 56.6 42.1999 57.1L42.2999 57.2C42.7999 57.6 43.3999 58.1 43.8999 58.6L43.9999 58.7C44.0999 58.8 44.2999 58.9 44.3999 59C44.9999 59.5 45.5999 59.9 46.1999 60.3H46.2999C46.5999 60.5 46.7999 60.7 47.0999 60.8C47.1999 60.9 47.2999 61 47.4999 61C47.8999 61.3 48.3999 61.5 48.7999 61.8C48.8999 61.8 48.8999 61.9 48.9999 61.9C49.3999 62.1 49.7999 62.3 50.1999 62.5C50.2999 62.6 50.4999 62.6 50.5999 62.7C50.8999 62.8 51.1999 63 51.3999 63.1L51.4999 63.2C52.0999 63.5 52.5999 63.7 53.1999 64C53.2999 64.1 53.4999 64.1 53.5999 64.2C54.0999 64.4 54.4999 64.6 54.9999 64.8C55.1999 64.9 55.3999 65 55.5999 65C55.9999 65.2 56.4999 65.3 56.8999 65.4L57.4999 65.6C58.0999 65.8 58.6999 66 59.3999 66.1C92.2999 71.5 99.9999 46.2 99.9999 46.2C93.0999 56 79.7999 60.7 65.5999 57.1C64.8999 56.9 64.1999 56.7 63.4999 56.5L63.6999 56.6C63.4999 56.5 63.2999 56.5 63.0999 56.4C62.6999 56.3 62.1999 56.1 61.7999 56L61.1999 55.8C60.6999 55.6 60.2999 55.4 59.7999 55.2C59.6999 55.1 59.4999 55.1 59.3999 55C58.7999 54.7 58.1999 54.5 57.6999 54.2L56.7999 53.8L56.2999 53.6C55.8999 53.4 55.5999 53.2 55.1999 53C55.0999 53 54.9999 52.9 54.8999 52.8C54.4999 52.5 53.9999 52.3 53.5999 52C53.4999 51.9 53.2999 51.8 53.1999 51.7L52.2999 51.1C51.6999 50.7 51.0999 50.2 50.4999 49.8C50.3999 49.7 50.1999 49.6 50.0999 49.5C43.9999 44.5 39.0999 37.9 36.6999 30.3C34.1999 22.4 34.7999 13.6 38.9999 6.5L33.7999 13.9C27.3999 23 27.7999 35.3 32.7999 45C33.6999 46.8 34.5999 48.3 35.6999 49.7C36.6999 51.1 37.6999 52.7 38.9999 53.7C39.2999 54.3 39.7999 54.8 40.2999 55.3Z" fill="#545454"/>
<path d="M56.9001 5.9C53.1001 11.4 52.7001 18.3 55.4001 24.4C58.2001 30.9 63.8001 36 70.4001 38.4C70.7001 38.5 70.9001 38.6 71.2001 38.7L71.6001 38.8C72.0001 38.9 72.4001 39.1 72.8001 39.2C91.0001 42.6 96.0001 29.8 97.3001 27.9C93.0001 34.1 85.7001 35.6 76.7001 33.4C75.9001 33.2 75.2001 33 74.4001 32.7H74.5001C73.6001 32.4 72.7001 32 71.8001 31.6L72.0001 31.7C70.3001 30.9 68.8001 30 67.5001 28.9C59.5001 22.9 54.6001 11.4 59.8001 2L56.9001 5.9Z" fill="#545454"/>
</g>
<defs>
<clipPath id="clip0_790_8261">
<rect width="100" height="100" fill="white"/>
</clipPath>
</defs>
</svg>
